REM DIRINDEX 1\2,1\3\7,1\3\8,1\4\9,1\4\10,1\4\11,1\5\12,1\5\13,1\5\14,1\6\15,1\6\16,1\6\17
REM DIRNAME "folder01","folder02","folder03","folder04","folder05","folder06","folder07","folder08","folder09","folder10","folder11","folder12","folder13","folder14","folder15","folder16","folder17"
TITLE ""
FILE "2Q_t_1236-1251.mp3" MP3
  TRACK 01 AUDIO
    TITLE "0:"
    INDEX 01 00:00:00
  TRACK 02 AUDIO
    TITLE "7:cjc174_4269"
    INDEX 01 00:00:26
  TRACK 03 AUDIO
    TITLE "0:"
    INDEX 01 00:01:49
  TRACK 04 AUDIO
    TITLE "8:cjc174_4270"
    INDEX 01 00:02:35
  TRACK 05 AUDIO
    TITLE "0:"
    INDEX 01 00:06:31
  TRACK 06 AUDIO
    TITLE "7:cjc174_4271"
    INDEX 01 00:06:74
  TRACK 07 AUDIO
    TITLE "0:"
    INDEX 01 00:08:25
  TRACK 08 AUDIO
    TITLE "8:cjc174_4272"
    INDEX 01 00:08:73
  TRACK 09 AUDIO
    TITLE "0:"
    INDEX 01 00:12:06
  TRACK 10 AUDIO
    TITLE "7:cjc174_4273"
    INDEX 01 00:12:51
  TRACK 11 AUDIO
    TITLE "0:"
    INDEX 01 00:13:54
  TRACK 12 AUDIO
    TITLE "8:cjc174_4274"
    INDEX 01 00:14:40
  TRACK 13 AUDIO
    TITLE "0:"
    INDEX 01 00:18:24
  TRACK 14 AUDIO
    TITLE "7:cjc174_4275"
    INDEX 01 00:18:69
  TRACK 15 AUDIO
    TITLE "0:"
    INDEX 01 00:20:01
  TRACK 16 AUDIO
    TITLE "8:cjc174_4276"
    INDEX 01 00:20:52
  TRACK 17 AUDIO
    TITLE "0:"
    INDEX 01 00:24:15
  TRACK 18 AUDIO
    TITLE "7:cjc174_4277"
    INDEX 01 00:24:60
  TRACK 19 AUDIO
    TITLE "0:"
    INDEX 01 00:26:00
  TRACK 20 AUDIO
    TITLE "8:cjc174_4278"
    INDEX 01 00:26:51
  TRACK 21 AUDIO
    TITLE "0:"
    INDEX 01 00:29:14
  TRACK 22 AUDIO
    TITLE "7:cjc174_4279"
    INDEX 01 00:29:61
  TRACK 23 AUDIO
    TITLE "0:"
    INDEX 01 00:30:68
  TRACK 24 AUDIO
    TITLE "8:cjc174_4280"
    INDEX 01 00:31:46
  TRACK 25 AUDIO
    TITLE "0:"
    INDEX 01 00:32:73
  TRACK 26 AUDIO
    TITLE "7:cjc174_4281"
    INDEX 01 00:33:45
  TRACK 27 AUDIO
    TITLE "0:"
    INDEX 01 00:34:64
  TRACK 28 AUDIO
    TITLE "8:cjc174_4282"
    INDEX 01 00:35:40
  TRACK 29 AUDIO
    TITLE "0:"
    INDEX 01 00:38:07
  TRACK 30 AUDIO
    TITLE "7:cjc174_4283"
    INDEX 01 00:38:52
  TRACK 31 AUDIO
    TITLE "0:"
    INDEX 01 00:39:59
  TRACK 32 AUDIO
    TITLE "8:cjc174_4284"
    INDEX 01 00:40:31
  TRACK 33 AUDIO
    TITLE "0:"
    INDEX 01 00:42:67
  TRACK 34 AUDIO
    TITLE "2:cjc174_4285"
    INDEX 01 00:43:40
  TRACK 35 AUDIO
    TITLE "0:"
    INDEX 01 00:44:43
  TRACK 36 AUDIO
    TITLE "7:cjc174_4286"
    INDEX 01 00:45:15
  TRACK 37 AUDIO
    TITLE "0:"
    INDEX 01 00:46:16
  TRACK 38 AUDIO
    TITLE "8:cjc174_4287"
    INDEX 01 00:46:59
  TRACK 39 AUDIO
    TITLE "0:"
    INDEX 01 00:47:71
  TRACK 40 AUDIO
    TITLE "7:cjc174_4288"
    INDEX 01 00:48:39
  TRACK 41 AUDIO
    TITLE "0:"
    INDEX 01 00:49:52
  TRACK 42 AUDIO
    TITLE "8:cjc174_4289"
    INDEX 01 00:50:30
  TRACK 43 AUDIO
    TITLE "0:"
    INDEX 01 00:51:37
  TRACK 44 AUDIO
    TITLE "7:cjc174_4290"
    INDEX 01 00:52:07
  TRACK 45 AUDIO
    TITLE "0:"
    INDEX 01 00:53:40
  TRACK 46 AUDIO
    TITLE "8:cjc174_4291"
    INDEX 01 00:54:14
  TRACK 47 AUDIO
    TITLE "0:"
    INDEX 01 00:55:35
  TRACK 48 AUDIO
    TITLE "7:cjc174_4292"
    INDEX 01 00:56:05
  TRACK 49 AUDIO
    TITLE "0:"
    INDEX 01 00:57:20
  TRACK 50 AUDIO
    TITLE "8:cjc174_4293"
    INDEX 01 00:57:73
  TRACK 51 AUDIO
    TITLE "0:"
    INDEX 01 01:00:07
  TRACK 52 AUDIO
    TITLE "7:cjc174_4294"
    INDEX 01 01:00:52
  TRACK 53 AUDIO
    TITLE "0:"
    INDEX 01 01:01:59
  TRACK 54 AUDIO
    TITLE "8:cjc174_4295"
    INDEX 01 01:02:33
  TRACK 55 AUDIO
    TITLE "0:"
    INDEX 01 01:03:46
  TRACK 56 AUDIO
    TITLE "7:cjc174_4296"
    INDEX 01 01:04:16
  TRACK 57 AUDIO
    TITLE "0:"
    INDEX 01 01:05:67
  TRACK 58 AUDIO
    TITLE "8:cjc174_4297"
    INDEX 01 01:06:46
  TRACK 59 AUDIO
    TITLE "0:"
    INDEX 01 01:07:69
  TRACK 60 AUDIO
    TITLE "7:cjc174_4298"
    INDEX 01 01:08:39
  TRACK 61 AUDIO
    TITLE "0:"
    INDEX 01 01:09:58
  TRACK 62 AUDIO
    TITLE "8:cjc174_4299"
    INDEX 01 01:10:31
  TRACK 63 AUDIO
    TITLE "0:"
    INDEX 01 01:11:52
  TRACK 64 AUDIO
    TITLE "7:cjc174_4300"
    INDEX 01 01:12:20
  TRACK 65 AUDIO
    TITLE "0:"
    INDEX 01 01:13:35
  TRACK 66 AUDIO
    TITLE "8:cjc174_4301"
    INDEX 01 01:14:09
  TRACK 67 AUDIO
    TITLE "0:"
    INDEX 01 01:16:08
